<svg width="24" height="26" viewBox="0 0 24 26" fill="none" xmlns="http://www.w3.org/2000/svg">
<path d="M18.5 4.68V5.18H19H23C23.2587 5.18 23.5 5.40223 23.5 5.72V6.52H21.8625H21.3847L21.363 6.99732L20.5911 23.9948L20.5911 23.995C20.5524 24.8568 19.878 25.5 19.0938 25.5H4.90625C4.12519 25.5 3.44761 24.8536 3.40887 23.995L3.40886 23.9948L2.63699 6.99732L2.61531 6.52H2.1375H0.5V5.72C0.5 5.40223 0.741319 5.18 1 5.18H5H5.5V4.68V2.08C5.5 1.19023 6.19132 0.5 7 0.5H17C17.8087 0.5 18.5 1.19023 18.5 2.08V4.68ZM16.75 5.18H17.25V4.68V2.34V1.84H16.75H7.25H6.75V2.34V4.68V5.18H7.25H16.75Z" stroke="#4B2201"/>
</svg>
