<svg width="24" height="24" viewBox="0 0 24 24" fill="none" xmlns="http://www.w3.org/2000/svg">
<path d="M21.9774 5.28746L9.44605 17.8188L4.47118 18.6914C4.4293 18.6975 4.39717 18.7 4.371 18.7C4.24209 18.7 4.11667 18.6514 4.00693 18.5458C3.94946 18.4884 3.90667 18.418 3.88222 18.3405C3.85753 18.2622 3.85229 18.1791 3.86696 18.0983L3.86748 18.0954L4.74116 13.1139L17.274 0.581149L21.9774 5.28746ZM22.1198 5.42991C22.1197 5.42976 22.1195 5.4296 22.1193 5.42945L22.1198 5.42991ZM0.96 22.22H23.04C23.2949 22.22 23.5 22.4251 23.5 22.68V23.5H0.5V22.68C0.5 22.4251 0.705143 22.22 0.96 22.22ZM17.2739 0.299939L17.061 0.087L17.2739 0.299939Z" stroke="#4B2201"/>
</svg>
